<?xml version="1.0" encoding="UTF-8" standalone="no"?>
<!DOCTYPE svg PUBLIC "-//W3C//DTD SVG 1.1//EN" "http://www.w3.org/Graphics/SVG/1.1/DTD/svg11.dtd">
<svg width="100%" height="100%" viewBox="0 0 945 945" version="1.1" xmlns="http://www.w3.org/2000/svg" xmlns:xlink="http://www.w3.org/1999/xlink" xml:space="preserve" xmlns:serif="http://www.serif.com/" style="fill-rule:evenodd;clip-rule:evenodd;stroke-linecap:round;stroke-linejoin:round;stroke-miterlimit:1.5;">
    <g transform="matrix(1.33333,0,0,1.33333,0,0)">
        <g transform="matrix(0.538128,0,0,0.538128,358.019,-75.9895)">
            <path d="M368.375,1123.83C374.218,1092.13 402.027,1068.09 435.407,1068.09C468.787,1068.09 496.596,1092.13 502.439,1123.83C529.314,1125.12 550.741,1147.34 550.741,1174.53L550.741,1175.3C550.741,1203.32 527.997,1226.06 499.982,1226.06L370.832,1226.06C342.817,1226.06 320.073,1203.32 320.073,1175.3L320.073,1174.53C320.073,1147.34 341.5,1125.12 368.375,1123.83Z" style="fill:rgb(203,160,144);stroke:rgb(203,160,144);stroke-width:7.74px;"/>
        </g>
        <g transform="matrix(0.497529,0,0,1,-172.676,-613.429)">
            <path d="M1094.22,1181.1L1212.51,1181.1" style="fill:none;stroke:rgb(67,4,12);stroke-width:18.46px;"/>
        </g>
        <g transform="matrix(6.12323e-17,-1,1,6.12323e-17,-579.494,1432.02)">
            <circle cx="1094.22" cy="951.226" r="229.877" style="fill:rgb(189,116,107);"/>
        </g>
        <g transform="matrix(6.12323e-17,-1,1,6.12323e-17,-579.494,1432.02)">
            <path d="M1094.22,721.349C1094.22,721.349 864.346,723.734 864.346,951.226" style="fill:none;stroke:rgb(67,4,12);stroke-width:14.58px;"/>
        </g>
        <g transform="matrix(0.908646,0,0,1,-643.53,-621.429)">
            <path d="M864.346,951.331L909.901,951.226C909.901,951.226 862.323,1172.8 1094.22,1181.1C1094.22,1181.1 885.874,1214.74 864.346,951.331Z" style="fill:rgb(67,4,12);stroke:rgb(67,4,12);stroke-width:6.54px;"/>
        </g>
        <g transform="matrix(1,0,0,1,-270.81,-398.564)">
            <g transform="matrix(1.0127,0,0,0.925969,-6.65603,45.7699)">
                <path d="M603.982,635.557C604.502,625.917 612.494,618.25 622.262,618.25C632.031,618.25 640.022,625.917 640.542,635.557L640.882,635.557L640.882,656.122C640.882,656.122 640.882,540.086 640.882,721.349C640.882,902.613 524.252,871.29 524.252,871.29C613.375,871.29 603.906,721.349 603.906,721.349L603.906,656.075L603.955,656.075L603.955,635.557L603.982,635.557Z" style="fill:white;stroke:white;stroke-width:10.74px;"/>
            </g>
            <g transform="matrix(0.702372,0,0,0.702372,208.156,184.59)">
                <path d="M675.196,627.108L656.773,627.108C654.328,627.108 652.344,625.124 652.344,622.679C652.344,620.235 654.328,618.25 656.773,618.25L766.313,618.25C767.189,618.25 768.005,618.504 768.692,618.943C785.005,621.942 787.676,634.103 786.691,644.639C787.61,652.575 785.01,660.339 778.967,665.276C768.856,673.538 752.91,670.777 743.38,659.114C739.137,653.92 736.876,647.832 736.567,641.944C715.382,631.477 681.361,628.107 671.304,627.313C672.353,627.28 673.663,627.21 675.196,627.108ZM671.304,627.313C669.411,627.374 668.37,627.315 668.418,627.108C668.418,627.108 669.456,627.167 671.304,627.313Z" style="fill:white;stroke:white;stroke-width:5.93px;"/>
            </g>
            <g transform="matrix(0.52377,0,0,0.478345,400.759,162.536)">
                <path d="M507.062,1174.5L507.062,1141.07C507.062,1141.07 642.362,1146.35 642.362,1092.54L642.362,1174.5L507.062,1174.5Z" style="fill:white;stroke:white;stroke-width:8.31px;"/>
            </g>
        </g>
        <g transform="matrix(0.726444,0.144639,-0.138746,0.696843,-294.202,-424.924)">
            <path d="M1153.46,1151.25C1153.46,1151.25 1129.17,1286.42 925.957,1286.42C925.957,1286.42 1014.06,1252.4 979.285,1114.46L1153.46,1151.25Z" style="fill:rgb(189,116,107);stroke:rgb(189,116,107);stroke-width:20.09px;"/>
        </g>
        <g transform="matrix(-0.385349,0,0,0.385349,299.076,-154.879)">
            <g transform="matrix(6.12323e-17,-1,1,6.12323e-17,-545.825,2397.38)">
                <circle cx="1094.22" cy="951.226" r="229.877" style="fill:rgb(203,160,144);stroke:rgb(203,160,144);stroke-width:2.6px;"/>
            </g>
            <g transform="matrix(0.726444,0.144639,-0.138746,0.696843,-260.534,540.439)">
                <path d="M1153.46,1151.25C1153.46,1151.25 1129.17,1286.42 925.957,1286.42C925.957,1286.42 1014.06,1252.4 979.285,1114.46L1153.46,1151.25Z" style="fill:rgb(203,160,144);stroke:rgb(203,160,144);stroke-width:52.14px;"/>
            </g>
        </g>
        <g transform="matrix(0.328156,0,0,0.328156,299.673,99.6318)">
            <path d="M819.96,1527.73C817.147,1528.22 649.711,1527.72 649.711,1527.72C649.711,1527.72 523.728,1653.01 523.728,1652.81C523.728,1652.61 513.037,1662.82 530.512,1669.1C530.512,1669.1 580.887,1688.38 622.373,1661.63C622.373,1661.63 816.924,1529.3 819.96,1527.73C819.983,1527.73 819.995,1527.72 819.995,1527.72C819.995,1527.72 819.983,1527.72 819.96,1527.73ZM455.908,1403.71C455.524,1403.69 434.947,1420.28 457.217,1441.13L487.926,1470.65L440.692,1517.33C440.692,1517.33 434.229,1523.49 448.473,1523.61C448.473,1523.61 468.149,1525.75 477.088,1519.21L526.356,1496.3C526.356,1496.3 569.3,1534.44 636.45,1526.68L993.045,1526.68C993.045,1526.68 1051.61,1528.74 1051.61,1501.55C1051.61,1501.55 1012.58,1392.97 922.458,1392.97L563.999,1392.97L472.742,1280.53C472.742,1280.53 462.973,1272.35 449.393,1275.8L355.503,1275.8C355.503,1275.8 349.383,1286.8 359.939,1289C359.939,1289 396.748,1283.88 409.104,1314.8C409.104,1314.8 455.317,1402.91 455.908,1403.71ZM455.908,1403.71C455.912,1403.71 455.914,1403.71 455.914,1403.71C455.914,1403.71 455.912,1403.71 455.908,1403.71ZM684.461,1391.82L616.75,1324.11C616.75,1324.11 589.561,1303.85 613.644,1297.17C613.644,1297.17 675.14,1281.24 702.673,1303.23L830.081,1391.54L684.461,1391.82Z" style="fill:rgb(67,4,12);stroke:rgb(67,4,12);stroke-width:12.7px;"/>
        </g>
        <g transform="matrix(0.277735,0,0,0.277735,441.364,293.453)">
            <path d="M368.375,1123.83C374.218,1092.13 402.027,1068.09 435.407,1068.09C468.787,1068.09 496.596,1092.13 502.439,1123.83C529.314,1125.12 550.741,1147.34 550.741,1174.53L550.741,1175.3C550.741,1203.32 527.997,1226.06 499.982,1226.06L370.832,1226.06C342.817,1226.06 320.073,1203.32 320.073,1175.3L320.073,1174.53C320.073,1147.34 341.5,1125.12 368.375,1123.83Z" style="fill:rgb(203,160,144);stroke:rgb(203,160,144);stroke-width:15px;"/>
        </g>
        <g transform="matrix(0.964428,0,0,0.964428,-434.837,-987.537)">
            <path d="M561.625,1370.81C561.459,1370.35 561.25,1369.83 561,1369.26C560.75,1368.7 560.492,1368.12 560.225,1367.54C559.959,1366.95 559.684,1366.4 559.4,1365.89C559.117,1365.37 558.859,1364.91 558.625,1364.51L562.725,1362.66C563.225,1363.53 563.792,1364.57 564.425,1365.79C565.059,1367.01 565.625,1368.15 566.125,1369.21L561.625,1370.81ZM572.375,1369.51C572.309,1369.01 572.217,1368.45 572.1,1367.84C571.984,1367.22 571.859,1366.59 571.725,1365.94C571.592,1365.29 571.459,1364.66 571.325,1364.06C571.192,1363.46 571.059,1362.95 570.925,1362.51L575.325,1361.61C575.592,1362.48 575.884,1363.54 576.2,1364.79C576.517,1366.04 576.792,1367.25 577.025,1368.41L572.375,1369.51ZM584.175,1371.91C586.475,1371.91 588.484,1371.89 590.2,1371.84C591.917,1371.79 593.409,1371.71 594.675,1371.61L594.675,1380.96L590.525,1380.96L590.525,1375.56L557.525,1375.56L557.525,1381.36L553.375,1381.36L553.375,1371.61C554.742,1371.71 556.359,1371.79 558.225,1371.84C560.092,1371.89 562.275,1371.91 564.775,1371.91L580.125,1371.91C580.692,1371.08 581.275,1370.15 581.875,1369.14C582.475,1368.12 583.034,1367.11 583.55,1366.11C584.067,1365.11 584.534,1364.18 584.95,1363.31C585.367,1362.45 585.659,1361.75 585.825,1361.21C586.525,1361.71 587.3,1362.19 588.15,1362.64C589,1363.09 589.725,1363.43 590.325,1363.66C590.725,1363.83 590.909,1363.99 590.875,1364.14C590.842,1364.29 590.592,1364.48 590.125,1364.71C589.825,1364.88 589.209,1365.51 588.275,1366.61C587.342,1367.71 585.975,1369.48 584.175,1371.91ZM572.525,1394.51C570.325,1394.51 568.3,1394.52 566.45,1394.54C564.6,1394.56 562.892,1394.59 561.325,1394.64C559.759,1394.69 558.292,1394.75 556.925,1394.81C555.559,1394.88 554.275,1394.96 553.075,1395.06L553.075,1390.31C554.309,1390.41 555.6,1390.49 556.95,1390.54C558.3,1390.59 559.759,1390.64 561.325,1390.69C562.892,1390.74 564.6,1390.77 566.45,1390.79C568.3,1390.81 570.325,1390.81 572.525,1390.81L572.525,1387.31C575.592,1386.18 577.909,1385.08 579.475,1384.01L567.875,1384.01C564.842,1384.01 562.475,1384.06 560.775,1384.16L560.775,1380.41C561.742,1380.48 562.659,1380.53 563.525,1380.56C564.392,1380.6 565.309,1380.63 566.275,1380.66C567.242,1380.7 568.334,1380.71 569.55,1380.71L573.925,1380.71C576.025,1380.71 577.809,1380.7 579.275,1380.69C580.742,1380.67 581.984,1380.65 583,1380.64C584.017,1380.62 584.85,1380.6 585.5,1380.56C586.15,1380.53 586.709,1380.48 587.175,1380.41L587.175,1384.91C586.742,1384.88 586.259,1384.92 585.725,1385.04C585.192,1385.15 584.542,1385.36 583.775,1385.66C583.009,1385.96 582.075,1386.39 580.975,1386.94C579.875,1387.49 578.542,1388.2 576.975,1389.06L576.975,1390.81C580.942,1390.78 584.35,1390.73 587.2,1390.66C590.05,1390.6 592.609,1390.48 594.875,1390.31L594.875,1395.06C592.609,1394.93 590.05,1394.81 587.2,1394.71C584.35,1394.61 580.942,1394.55 576.975,1394.51L576.975,1401.81C576.975,1402.58 576.875,1403.21 576.675,1403.71C576.475,1404.21 576.067,1404.65 575.45,1405.01C574.834,1405.38 573.942,1405.7 572.775,1405.99C571.609,1406.27 570.059,1406.58 568.125,1406.91C567.959,1405.31 567.392,1403.61 566.425,1401.81C567.725,1401.91 568.775,1401.96 569.575,1401.96C570.375,1401.96 570.992,1401.89 571.425,1401.74C571.859,1401.59 572.15,1401.39 572.3,1401.14C572.45,1400.89 572.525,1400.56 572.525,1400.16L572.525,1394.51Z" style="fill:white;fill-rule:nonzero;stroke:white;stroke-width:0.65px;stroke-linecap:butt;stroke-miterlimit:2;"/>
            <path d="M610.275,1376.16C609.775,1374.2 608.859,1372.46 607.525,1370.96L611.425,1369.31C611.725,1369.81 611.992,1370.26 612.225,1370.64C612.459,1371.02 612.675,1371.4 612.875,1371.79C613.075,1372.17 613.292,1372.56 613.525,1372.96C613.759,1373.36 614.025,1373.83 614.325,1374.36L610.275,1376.16ZM630.075,1375.26C629.709,1374.26 629.309,1373.34 628.875,1372.49C628.442,1371.64 627.975,1370.83 627.475,1370.06L631.325,1368.71C631.692,1369.48 632.084,1370.25 632.5,1371.01C632.917,1371.78 633.459,1372.7 634.125,1373.76L630.075,1375.26ZM640.475,1377.06C638.809,1377.63 637.384,1378.11 636.2,1378.51C635.017,1378.91 633.959,1379.31 633.025,1379.69C632.092,1380.07 631.234,1380.45 630.45,1380.81C629.667,1381.18 628.842,1381.58 627.975,1382.01C627.442,1381.31 626.942,1380.74 626.475,1380.29C626.009,1379.84 625.359,1379.31 624.525,1378.71C625.825,1378.48 627.234,1378.16 628.75,1377.76C630.267,1377.36 631.75,1376.93 633.2,1376.46C634.65,1376 636.017,1375.53 637.3,1375.06C638.584,1374.6 639.642,1374.16 640.475,1373.76L640.475,1367.21L634.45,1367.21C632.767,1367.21 631.334,1367.23 630.15,1367.26C628.967,1367.3 628,1367.33 627.25,1367.36C626.5,1367.4 625.875,1367.43 625.375,1367.46L625.375,1363.76C626.342,1363.86 627.625,1363.94 629.225,1363.99C630.825,1364.04 632.859,1364.06 635.325,1364.06C637.725,1364.06 639.692,1364.03 641.225,1363.96C642.759,1363.9 643.992,1363.81 644.925,1363.71C644.759,1364.38 644.634,1365.17 644.55,1366.09C644.467,1367.01 644.425,1367.93 644.425,1368.86L644.425,1379.01C644.425,1379.65 644.442,1380.29 644.475,1380.94C644.509,1381.59 644.609,1382.45 644.775,1383.51L640.475,1383.51L640.475,1377.06ZM636.775,1388.81L612.675,1388.81L612.675,1392.96L636.775,1392.96L636.775,1388.81ZM612.675,1400.26L636.775,1400.26L636.775,1395.91L612.675,1395.91L612.675,1400.26ZM625.925,1385.76C628.959,1385.73 631.759,1385.68 634.325,1385.61C636.892,1385.55 639.225,1385.48 641.325,1385.41C641.259,1385.68 641.209,1386.05 641.175,1386.51C641.142,1386.98 641.1,1387.47 641.05,1387.99C641,1388.51 640.967,1389.01 640.95,1389.51C640.934,1390.01 640.925,1390.43 640.925,1390.76L640.925,1401.66C640.925,1402.63 640.967,1403.51 641.05,1404.29C641.134,1405.07 641.259,1405.9 641.425,1406.76L636.775,1406.76L636.775,1403.56L612.675,1403.56L612.675,1406.76L608.175,1406.76C608.409,1405.8 608.575,1404.92 608.675,1404.14C608.775,1403.36 608.825,1402.53 608.825,1401.66L608.825,1390.76C608.825,1390.36 608.809,1389.9 608.775,1389.39C608.742,1388.87 608.709,1388.36 608.675,1387.86C608.642,1387.36 608.592,1386.9 608.525,1386.46C608.459,1386.03 608.409,1385.68 608.375,1385.41C610.175,1385.51 612.109,1385.59 614.175,1385.64C616.242,1385.69 618.625,1385.73 621.325,1385.76C621.659,1385.2 621.934,1384.68 622.15,1384.21C622.367,1383.75 622.559,1383.28 622.725,1382.81L619.325,1382.81L619.325,1378.51C617.425,1379.25 615.35,1380.1 613.1,1381.06C610.85,1382.03 608.559,1383.08 606.225,1384.21C605.792,1383.55 605.342,1382.97 604.875,1382.49C604.409,1382.01 603.775,1381.46 602.975,1380.86C604.109,1380.63 605.434,1380.27 606.95,1379.79C608.467,1379.31 610,1378.79 611.55,1378.24C613.1,1377.69 614.567,1377.15 615.95,1376.61C617.334,1376.08 618.459,1375.61 619.325,1375.21L619.325,1367.31C615.125,1367.31 611.725,1367.34 609.125,1367.39C606.525,1367.44 604.792,1367.5 603.925,1367.56L603.925,1363.86C604.492,1363.93 605.075,1363.98 605.675,1364.01C606.275,1364.05 606.95,1364.07 607.7,1364.09C608.45,1364.11 609.3,1364.12 610.25,1364.14C611.2,1364.15 612.292,1364.16 613.525,1364.16C618.325,1364.16 621.675,1364.06 623.575,1363.86C623.409,1364.53 623.292,1365.32 623.225,1366.24C623.159,1367.15 623.125,1368.08 623.125,1369.01L623.125,1377.71C623.125,1378.28 623.142,1378.93 623.175,1379.66C623.209,1380.4 623.259,1381.21 623.325,1382.11C624.125,1382.35 624.884,1382.51 625.6,1382.61C626.317,1382.71 627.025,1382.78 627.725,1382.81C629.192,1382.88 629.242,1383.21 627.875,1383.81C627.709,1383.88 627.484,1384.06 627.2,1384.34C626.917,1384.62 626.492,1385.1 625.925,1385.76Z" style="fill:white;fill-rule:nonzero;stroke:white;stroke-width:0.65px;stroke-linecap:butt;stroke-miterlimit:2;"/>
        </g>
        <g transform="matrix(32.2706,0,0,32.2706,581.205,590.529)">
            <path d="M0.226,-0.642C0.22,-0.661 0.213,-0.681 0.204,-0.7C0.195,-0.719 0.186,-0.737 0.176,-0.755L0.265,-0.793C0.273,-0.774 0.282,-0.755 0.292,-0.735C0.302,-0.714 0.312,-0.696 0.321,-0.68L0.226,-0.642ZM0.725,-0.264C0.741,-0.277 0.755,-0.288 0.769,-0.299C0.782,-0.31 0.793,-0.32 0.804,-0.33C0.815,-0.339 0.825,-0.349 0.834,-0.358C0.843,-0.367 0.852,-0.377 0.86,-0.386C0.883,-0.354 0.904,-0.332 0.922,-0.321C0.927,-0.318 0.929,-0.316 0.928,-0.314C0.927,-0.311 0.922,-0.309 0.915,-0.308C0.912,-0.307 0.907,-0.306 0.901,-0.304C0.895,-0.302 0.889,-0.3 0.882,-0.297C0.875,-0.294 0.869,-0.29 0.862,-0.287C0.854,-0.283 0.849,-0.279 0.844,-0.276C0.821,-0.259 0.801,-0.246 0.786,-0.237C0.77,-0.227 0.754,-0.217 0.739,-0.208C0.748,-0.186 0.76,-0.166 0.775,-0.147C0.79,-0.128 0.807,-0.111 0.826,-0.096C0.845,-0.081 0.865,-0.069 0.888,-0.059C0.91,-0.048 0.933,-0.04 0.957,-0.035C0.94,-0.025 0.927,-0.012 0.918,0.005C0.909,0.022 0.9,0.042 0.893,0.065C0.843,0.03 0.801,-0.006 0.766,-0.041C0.731,-0.076 0.707,-0.112 0.692,-0.149C0.685,-0.168 0.679,-0.187 0.674,-0.205C0.669,-0.223 0.664,-0.242 0.661,-0.262C0.658,-0.282 0.655,-0.303 0.654,-0.326C0.653,-0.349 0.652,-0.374 0.651,-0.403L0.721,-0.407C0.72,-0.381 0.719,-0.356 0.72,-0.332C0.72,-0.307 0.722,-0.285 0.725,-0.264ZM0.497,-0.385C0.497,-0.415 0.497,-0.44 0.496,-0.46C0.495,-0.48 0.493,-0.495 0.49,-0.505C0.504,-0.505 0.521,-0.506 0.541,-0.508C0.561,-0.509 0.582,-0.512 0.605,-0.516C0.628,-0.519 0.651,-0.523 0.675,-0.528C0.698,-0.532 0.721,-0.537 0.742,-0.542C0.763,-0.547 0.783,-0.553 0.8,-0.558C0.817,-0.563 0.83,-0.569 0.84,-0.574C0.847,-0.56 0.854,-0.548 0.862,-0.538C0.869,-0.527 0.877,-0.518 0.885,-0.51C0.892,-0.503 0.894,-0.499 0.893,-0.497C0.892,-0.494 0.888,-0.493 0.882,-0.493C0.876,-0.493 0.867,-0.492 0.856,-0.491C0.845,-0.489 0.832,-0.487 0.819,-0.484C0.808,-0.482 0.791,-0.479 0.77,-0.476C0.748,-0.472 0.725,-0.468 0.701,-0.464C0.676,-0.46 0.652,-0.456 0.629,-0.453C0.605,-0.45 0.585,-0.447 0.569,-0.446L0.569,-0.031L0.657,-0.112C0.659,-0.093 0.662,-0.077 0.665,-0.064C0.668,-0.05 0.673,-0.038 0.678,-0.027L0.59,0.035C0.581,0.041 0.57,0.05 0.555,0.064C0.54,0.077 0.527,0.089 0.516,0.101C0.511,0.088 0.504,0.074 0.495,0.061C0.486,0.047 0.478,0.035 0.47,0.025C0.488,0.009 0.497,-0.013 0.497,-0.04L0.497,-0.385ZM0.715,-0.697C0.766,-0.697 0.806,-0.698 0.836,-0.699C0.865,-0.7 0.888,-0.702 0.905,-0.705L0.905,-0.628C0.888,-0.629 0.864,-0.63 0.835,-0.631C0.806,-0.632 0.765,-0.632 0.712,-0.632L0.553,-0.632C0.54,-0.606 0.524,-0.577 0.505,-0.545C0.486,-0.513 0.465,-0.48 0.443,-0.447C0.418,-0.466 0.394,-0.479 0.372,-0.488C0.392,-0.506 0.41,-0.527 0.426,-0.551C0.442,-0.574 0.456,-0.6 0.469,-0.627C0.481,-0.654 0.491,-0.682 0.5,-0.712C0.508,-0.741 0.515,-0.771 0.52,-0.802C0.538,-0.795 0.556,-0.789 0.574,-0.784C0.591,-0.779 0.605,-0.777 0.615,-0.776C0.622,-0.775 0.626,-0.774 0.627,-0.771C0.628,-0.768 0.624,-0.765 0.616,-0.76C0.615,-0.759 0.613,-0.758 0.612,-0.757C0.611,-0.755 0.609,-0.752 0.607,-0.748C0.605,-0.744 0.602,-0.738 0.598,-0.73C0.594,-0.722 0.589,-0.711 0.583,-0.697L0.715,-0.697ZM0.145,-0.559C0.126,-0.558 0.108,-0.557 0.093,-0.556C0.077,-0.555 0.062,-0.553 0.049,-0.551L0.049,-0.636C0.071,-0.633 0.096,-0.63 0.125,-0.629C0.154,-0.627 0.188,-0.626 0.228,-0.626C0.268,-0.626 0.302,-0.627 0.331,-0.629C0.36,-0.63 0.385,-0.633 0.406,-0.636L0.406,-0.551C0.385,-0.554 0.36,-0.557 0.332,-0.558C0.303,-0.559 0.27,-0.56 0.231,-0.56C0.231,-0.533 0.231,-0.508 0.231,-0.486C0.23,-0.464 0.229,-0.443 0.228,-0.422L0.319,-0.422C0.332,-0.422 0.345,-0.423 0.359,-0.424C0.372,-0.425 0.383,-0.427 0.394,-0.429L0.394,-0.059C0.394,-0.043 0.392,-0.029 0.388,-0.016C0.384,-0.003 0.377,0.008 0.367,0.018C0.356,0.028 0.342,0.037 0.325,0.046C0.307,0.054 0.284,0.061 0.256,0.068C0.254,0.051 0.25,0.036 0.245,0.021C0.24,0.006 0.23,-0.014 0.215,-0.037C0.253,-0.031 0.28,-0.032 0.295,-0.041C0.31,-0.05 0.317,-0.067 0.317,-0.092L0.317,-0.355L0.224,-0.355C0.221,-0.296 0.217,-0.247 0.214,-0.207C0.211,-0.167 0.206,-0.131 0.199,-0.099C0.192,-0.066 0.182,-0.035 0.17,-0.005C0.157,0.026 0.141,0.06 0.12,0.099C0.101,0.069 0.075,0.047 0.042,0.034C0.065,0.006 0.085,-0.027 0.1,-0.064C0.115,-0.1 0.126,-0.147 0.135,-0.203C0.141,-0.242 0.145,-0.29 0.147,-0.348C0.149,-0.405 0.148,-0.476 0.145,-0.559Z" style="fill:white;fill-rule:nonzero;stroke:white;stroke-width:0.03px;stroke-linecap:butt;stroke-miterlimit:2;"/>
        </g>
        <g transform="matrix(0.138867,0,0,0.138867,385.502,441.045)">
            <path d="M368.375,1123.83C374.218,1092.13 402.027,1068.09 435.407,1068.09C468.787,1068.09 496.596,1092.13 502.439,1123.83C529.314,1125.12 550.741,1147.34 550.741,1174.53L550.741,1175.3C550.741,1203.32 527.997,1226.06 499.982,1226.06L370.832,1226.06C342.817,1226.06 320.073,1203.32 320.073,1175.3L320.073,1174.53C320.073,1147.34 341.5,1125.12 368.375,1123.83Z" style="fill:rgb(203,160,144);stroke:rgb(203,160,144);stroke-width:30px;"/>
        </g>
        <g transform="matrix(-0.584572,-7.15894e-17,7.15894e-17,-0.584572,846.988,624.204)">
            <path d="M629.774,704.89L629.774,723.145C629.774,738.189 617.56,750.402 602.517,750.402L475.19,750.402C460.146,750.402 447.933,738.189 447.933,723.145L447.933,595.818C447.933,580.775 460.146,568.561 475.19,568.561L602.517,568.561C617.56,568.561 629.774,580.775 629.774,595.818L629.774,614.074C605.156,614.581 585.34,634.735 585.34,659.482C585.34,684.228 605.156,704.383 629.774,704.89Z" style="fill:rgb(203,160,144);"/>
        </g>
        <g transform="matrix(-6.14427e-17,0.334479,-0.334479,-6.14427e-17,856.59,73.6797)">
            <path d="M652.238,910.748C685.198,910.748 711.957,937.507 711.957,970.467C711.957,1003.43 685.198,1030.19 652.238,1030.19L652.238,910.748Z" style="fill:rgb(203,160,144);stroke:rgb(203,160,144);stroke-width:12.46px;"/>
        </g>
        <g transform="matrix(1.02405e-16,-0.334479,0.334479,1.02405e-16,207.389,297.234)">
            <path d="M652.238,910.748C685.198,910.748 711.957,937.507 711.957,970.467C711.957,1003.43 685.198,1030.19 652.238,1030.19L652.238,910.748Z" style="fill:rgb(67,4,12);stroke:rgb(67,4,12);stroke-width:12.46px;"/>
        </g>
        <g transform="matrix(1.12748,0,0,1.12748,-177.717,-113.406)">
            <path d="M582.324,184.85C582.324,177.05 588.656,170.718 596.456,170.718L662.472,170.718C670.272,170.718 676.604,177.05 676.604,184.85L676.604,250.866C676.604,258.666 670.272,264.998 662.472,264.998L596.456,264.998C588.656,264.998 582.324,258.666 582.324,250.866L582.324,235.575C592.102,235.575 600.04,227.636 600.04,217.858C600.04,208.08 592.102,200.141 582.324,200.141L582.324,184.85Z" style="fill:rgb(67,4,12);"/>
        </g>
        <g transform="matrix(1.00951,0,0,0.966126,-5.22238,27.9222)">
            <ellipse cx="480.351" cy="217.914" rx="18.016" ry="18.825" style="fill:white;stroke:white;stroke-width:4.22px;"/>
        </g>
        <g transform="matrix(0.388947,-2.08167e-17,2.08167e-17,0.388947,257.989,-400.789)">
            <path d="M670.703,1377.83L662.953,1377.83L662.953,1385.08L670.703,1385.08L670.703,1377.83ZM674.703,1371.38C673.736,1371.24 672.628,1371.14 671.378,1371.08C670.128,1371.01 668.603,1370.98 666.803,1370.98C665.003,1370.98 663.478,1371.01 662.228,1371.08C660.978,1371.14 659.869,1371.24 658.903,1371.38L658.903,1367.68C659.869,1367.78 660.978,1367.86 662.228,1367.93C663.478,1367.99 665.003,1368.03 666.803,1368.03C668.603,1368.03 670.128,1368 671.378,1367.95C672.628,1367.9 673.736,1367.81 674.703,1367.68L674.703,1371.38ZM689.403,1367.83C689.936,1370.56 690.569,1372.92 691.303,1374.9C692.036,1376.88 692.928,1378.62 693.978,1380.1C695.028,1381.59 696.244,1382.85 697.628,1383.9C699.011,1384.95 700.636,1385.93 702.503,1386.83C701.936,1387.53 701.494,1388.23 701.178,1388.93C700.861,1389.63 700.569,1390.48 700.303,1391.48C698.036,1389.98 696.103,1388.41 694.503,1386.78C692.903,1385.14 691.544,1383.38 690.428,1381.48C689.311,1379.58 688.394,1377.5 687.678,1375.25C686.961,1373 686.386,1370.53 685.953,1367.83L682.253,1367.83C682.219,1370.83 682.103,1373.55 681.903,1376C681.703,1378.45 681.403,1380.7 681.003,1382.75C680.603,1384.8 680.086,1386.68 679.453,1388.38C678.819,1390.08 678.053,1391.68 677.153,1393.18C676.686,1392.71 676.111,1392.33 675.428,1392.03C674.744,1391.73 674.036,1391.51 673.303,1391.38C673.436,1391.21 673.553,1391.04 673.653,1390.88C673.753,1390.71 673.869,1390.54 674.003,1390.38L670.703,1390.38L670.703,1388.28L662.953,1388.28L662.953,1391.18L659.203,1391.18C659.269,1390.58 659.319,1390.03 659.353,1389.53C659.386,1389.03 659.419,1388.54 659.453,1388.05C659.486,1387.57 659.503,1387.08 659.503,1386.58L659.503,1378.43C659.503,1377.46 659.494,1376.68 659.478,1376.1C659.461,1375.52 659.436,1374.94 659.403,1374.38C659.703,1374.41 660.053,1374.44 660.453,1374.48C660.853,1374.51 661.344,1374.54 661.928,1374.55C662.511,1374.57 663.203,1374.58 664.003,1374.58L669.728,1374.58C670.511,1374.58 671.186,1374.57 671.753,1374.55C672.319,1374.54 672.786,1374.51 673.153,1374.48C673.519,1374.44 673.853,1374.41 674.153,1374.38C674.086,1374.84 674.044,1375.37 674.028,1375.95C674.011,1376.54 674.003,1377.36 674.003,1378.43L674.003,1384.13C674.003,1385.26 674.036,1386.24 674.103,1387.08C674.169,1387.91 674.253,1388.83 674.353,1389.83C675.153,1388.49 675.836,1387.08 676.403,1385.58C676.969,1384.08 677.419,1382.23 677.753,1380.03C678.086,1377.83 678.311,1375.16 678.428,1372.03C678.544,1368.89 678.586,1365.04 678.553,1360.48C678.519,1358.01 678.453,1356.05 678.353,1354.6C678.253,1353.15 678.119,1351.99 677.953,1351.13C678.619,1351.23 679.269,1351.3 679.903,1351.35C680.536,1351.4 681.244,1351.45 682.028,1351.5C682.811,1351.55 683.703,1351.59 684.703,1351.6C685.703,1351.62 686.903,1351.63 688.303,1351.63L692.453,1351.63C693.519,1351.63 694.411,1351.61 695.128,1351.58C695.844,1351.54 696.461,1351.5 696.978,1351.45C697.494,1351.4 698.069,1351.34 698.703,1351.28C698.569,1351.74 698.478,1352.42 698.428,1353.3C698.378,1354.18 698.353,1355.18 698.353,1356.28L698.353,1364.98C698.353,1365.94 698.378,1366.79 698.428,1367.5C698.478,1368.22 698.586,1369.08 698.753,1370.08L694.553,1370.08L694.553,1367.83L689.403,1367.83ZM694.553,1364.53L694.553,1355.18L682.253,1355.18L682.253,1364.53L694.553,1364.53ZM674.653,1364.98C673.686,1364.81 672.569,1364.7 671.303,1364.65C670.036,1364.6 668.536,1364.58 666.803,1364.58C665.069,1364.58 663.569,1364.6 662.303,1364.65C661.036,1364.7 659.919,1364.81 658.953,1364.98L658.953,1361.28C659.919,1361.44 661.036,1361.55 662.303,1361.6C663.569,1361.65 665.069,1361.68 666.803,1361.68C668.536,1361.68 670.036,1361.65 671.303,1361.6C672.569,1361.55 673.686,1361.44 674.653,1361.28L674.653,1364.98ZM675.503,1358.73C674.436,1358.59 673.203,1358.51 671.803,1358.48C670.403,1358.44 668.736,1358.43 666.803,1358.43C664.869,1358.43 663.194,1358.44 661.778,1358.48C660.361,1358.51 659.119,1358.59 658.053,1358.73L658.053,1354.98C659.153,1355.11 660.403,1355.2 661.803,1355.25C663.203,1355.3 664.869,1355.33 666.803,1355.33C668.736,1355.33 670.403,1355.3 671.803,1355.25C673.203,1355.2 674.436,1355.11 675.503,1354.98L675.503,1358.73ZM665.503,1354.93C665.036,1352.99 664.203,1351.13 663.003,1349.33L666.803,1347.63C667.369,1348.63 667.878,1349.58 668.328,1350.48C668.778,1351.38 669.186,1352.34 669.553,1353.38L665.503,1354.93Z" style="fill:white;fill-rule:nonzero;"/>
            <path d="M753.253,1355.63L753.203,1360.78C745.503,1360.48 740.303,1360.31 737.603,1360.28L737.253,1368.48C738.053,1370.41 738.453,1372.74 738.453,1375.48C738.453,1380.84 737.286,1384.63 734.953,1386.85C732.619,1389.07 728.936,1390.83 723.903,1392.13L720.803,1387.68C724.303,1386.71 726.903,1385.66 728.603,1384.53C730.303,1383.39 731.669,1381.93 732.703,1380.13C730.503,1380.96 728.719,1381.38 727.353,1381.38C725.453,1381.38 723.686,1380.56 722.053,1378.93C720.419,1377.29 719.603,1375.29 719.603,1372.93C719.603,1369.99 720.361,1367.67 721.878,1365.95C723.394,1364.24 725.486,1363.38 728.153,1363.38C729.419,1363.38 730.736,1363.56 732.103,1363.93L732.103,1360.28C723.069,1360.34 715.086,1360.76 708.153,1361.53L707.453,1355.93C716.519,1355.49 724.736,1355.23 732.103,1355.13C732.103,1351.66 732.086,1349.26 732.053,1347.93L737.753,1348.23C738.153,1348.26 738.353,1348.38 738.353,1348.58C738.353,1348.78 738.319,1348.98 738.253,1349.18C737.986,1349.94 737.803,1351.91 737.703,1355.08C742.569,1355.14 747.753,1355.33 753.253,1355.63ZM731.903,1370.23C731.236,1368.76 730.103,1368.03 728.503,1368.03C726.136,1368.03 724.953,1369.19 724.953,1371.53C724.953,1373.13 725.144,1374.28 725.528,1374.98C725.911,1375.68 726.669,1376.03 727.803,1376.03C728.936,1376.03 729.744,1375.89 730.228,1375.63C730.711,1375.36 731.086,1374.81 731.353,1373.98C731.619,1373.14 731.803,1371.89 731.903,1370.23Z" style="fill:white;fill-rule:nonzero;"/>
        </g>
        <g transform="matrix(53.358,0,0,53.358,512.84,254.934)">
            <path d="M0.536,-0.081L0.502,-0.171L0.211,-0.171L0.177,-0.079C0.163,-0.043 0.152,-0.019 0.143,-0.007C0.133,0.006 0.118,0.012 0.096,0.012C0.078,0.012 0.062,0.006 0.048,-0.008C0.034,-0.021 0.027,-0.036 0.027,-0.053C0.027,-0.063 0.028,-0.073 0.032,-0.083C0.035,-0.094 0.04,-0.108 0.048,-0.127L0.231,-0.592C0.236,-0.605 0.242,-0.621 0.25,-0.64C0.257,-0.659 0.265,-0.674 0.273,-0.687C0.281,-0.699 0.292,-0.709 0.306,-0.717C0.319,-0.724 0.336,-0.728 0.356,-0.728C0.376,-0.728 0.393,-0.724 0.406,-0.717C0.42,-0.709 0.431,-0.699 0.439,-0.687C0.448,-0.675 0.455,-0.662 0.46,-0.648C0.466,-0.634 0.473,-0.616 0.482,-0.593L0.669,-0.131C0.684,-0.096 0.691,-0.07 0.691,-0.054C0.691,-0.038 0.684,-0.022 0.67,-0.009C0.656,0.005 0.64,0.012 0.62,0.012C0.609,0.012 0.599,0.01 0.591,0.006C0.583,0.002 0.576,-0.003 0.57,-0.01C0.565,-0.017 0.559,-0.028 0.552,-0.043C0.546,-0.057 0.541,-0.07 0.536,-0.081ZM0.249,-0.28L0.463,-0.28L0.355,-0.575L0.249,-0.28Z" style="fill:white;fill-rule:nonzero;"/>
        </g>
        <g transform="matrix(1.02405e-16,-0.334479,0.334479,1.02405e-16,207.389,403.533)">
            <path d="M652.238,910.748C685.198,910.748 711.957,937.507 711.957,970.467C711.957,1003.43 685.198,1030.19 652.238,1030.19L652.238,910.748Z" style="fill:rgb(203,160,144);stroke:rgb(203,160,144);stroke-width:12.46px;"/>
        </g>
    </g>
</svg>
